<mxfile host="app.diagrams.net" agent="Mozilla/5.0 (Windows NT 10.0; Win64; x64) AppleWebKit/537.36 (KHTML, like Gecko) Chrome/135.0.0.0 Safari/537.36" version="26.2.15">
  <diagram id="6a731a19-8d31-9384-78a2-239565b7b9f0" name="Page-1">
    <mxGraphModel dx="2605" dy="-236" grid="1" gridSize="10" guides="1" tooltips="1" connect="1" arrows="1" fold="1" page="1" pageScale="1" pageWidth="1169" pageHeight="827" background="none" math="0" shadow="0">
      <root>
        <mxCell id="0" />
        <mxCell id="1" parent="0" />
        <mxCell id="-n4oUNv4abo9Lo2zfIX3-1" style="edgeStyle=orthogonalEdgeStyle;rounded=0;orthogonalLoop=1;jettySize=auto;html=1;exitX=0.5;exitY=0;exitDx=0;exitDy=0;entryX=0.5;entryY=0;entryDx=0;entryDy=0;strokeWidth=4;curved=1;strokeColor=light-dark(#000000,#EDEDED);fontSize=24;" edge="1" parent="1" source="-n4oUNv4abo9Lo2zfIX3-2" target="-n4oUNv4abo9Lo2zfIX3-20">
          <mxGeometry relative="1" as="geometry">
            <Array as="points">
              <mxPoint x="558" y="2930" />
              <mxPoint x="1331" y="2930" />
            </Array>
          </mxGeometry>
        </mxCell>
        <mxCell id="-n4oUNv4abo9Lo2zfIX3-2" value="&lt;font&gt;IDLE&lt;/font&gt;&lt;div&gt;&lt;font&gt;RIGHT&lt;/font&gt;&lt;/div&gt;" style="ellipse;whiteSpace=wrap;html=1;shadow=0;fontFamily=Helvetica;fontSize=24;align=center;strokeColor=#000000;strokeWidth=4;fillColor=#99FF99;fontStyle=1;gradientColor=#97d077;" vertex="1" parent="1">
          <mxGeometry x="468.5" y="2980" width="180" height="180" as="geometry" />
        </mxCell>
        <mxCell id="-n4oUNv4abo9Lo2zfIX3-3" style="edgeStyle=orthogonalEdgeStyle;rounded=0;orthogonalLoop=1;jettySize=auto;html=1;entryX=0.5;entryY=1;entryDx=0;entryDy=0;curved=1;strokeWidth=4;exitX=0;exitY=0.5;exitDx=0;exitDy=0;fontSize=24;" edge="1" parent="1" source="-n4oUNv4abo9Lo2zfIX3-4" target="-n4oUNv4abo9Lo2zfIX3-24">
          <mxGeometry relative="1" as="geometry">
            <Array as="points">
              <mxPoint x="370" y="2700" />
              <mxPoint x="370" y="3560" />
              <mxPoint x="1680" y="3560" />
              <mxPoint x="1680" y="3480" />
            </Array>
          </mxGeometry>
        </mxCell>
        <mxCell id="-n4oUNv4abo9Lo2zfIX3-4" value="&lt;font&gt;IDLE&lt;/font&gt;&lt;div&gt;&lt;font&gt;LEFT&lt;/font&gt;&lt;/div&gt;" style="ellipse;whiteSpace=wrap;html=1;shadow=0;fontFamily=Helvetica;fontSize=24;align=center;strokeColor=#000000;strokeWidth=4;fillColor=#FFD966;fontStyle=1;gradientColor=#ffd966;" vertex="1" parent="1">
          <mxGeometry x="473.5" y="2610" width="180" height="180" as="geometry" />
        </mxCell>
        <mxCell id="-n4oUNv4abo9Lo2zfIX3-5" style="edgeStyle=orthogonalEdgeStyle;rounded=0;orthogonalLoop=1;jettySize=auto;html=1;exitX=0;exitY=1;exitDx=0;exitDy=0;entryX=1;entryY=0;entryDx=0;entryDy=0;curved=1;strokeWidth=4;fontSize=24;" edge="1" parent="1" source="-n4oUNv4abo9Lo2zfIX3-9" target="-n4oUNv4abo9Lo2zfIX3-4">
          <mxGeometry relative="1" as="geometry" />
        </mxCell>
        <mxCell id="-n4oUNv4abo9Lo2zfIX3-6" style="edgeStyle=orthogonalEdgeStyle;rounded=0;orthogonalLoop=1;jettySize=auto;html=1;exitX=0;exitY=1;exitDx=0;exitDy=0;entryX=0;entryY=0;entryDx=0;entryDy=0;strokeWidth=4;curved=1;fontSize=24;" edge="1" parent="1" source="-n4oUNv4abo9Lo2zfIX3-9" target="-n4oUNv4abo9Lo2zfIX3-22">
          <mxGeometry relative="1" as="geometry" />
        </mxCell>
        <mxCell id="-n4oUNv4abo9Lo2zfIX3-7" style="edgeStyle=orthogonalEdgeStyle;rounded=0;orthogonalLoop=1;jettySize=auto;html=1;exitX=0.5;exitY=0;exitDx=0;exitDy=0;entryX=0;entryY=1;entryDx=0;entryDy=0;curved=1;strokeWidth=4;fontSize=24;" edge="1" parent="1" source="-n4oUNv4abo9Lo2zfIX3-9" target="-n4oUNv4abo9Lo2zfIX3-2">
          <mxGeometry relative="1" as="geometry">
            <Array as="points">
              <mxPoint x="930" y="2220" />
              <mxPoint x="280" y="2220" />
              <mxPoint x="280" y="3134" />
            </Array>
          </mxGeometry>
        </mxCell>
        <mxCell id="-n4oUNv4abo9Lo2zfIX3-8" style="edgeStyle=orthogonalEdgeStyle;rounded=0;orthogonalLoop=1;jettySize=auto;html=1;exitX=1;exitY=0.5;exitDx=0;exitDy=0;entryX=0;entryY=0;entryDx=0;entryDy=0;curved=1;strokeWidth=4;fontSize=24;" edge="1" parent="1" source="-n4oUNv4abo9Lo2zfIX3-9" target="-n4oUNv4abo9Lo2zfIX3-24">
          <mxGeometry relative="1" as="geometry">
            <mxPoint x="1229.9999999999998" y="2670" as="targetPoint" />
          </mxGeometry>
        </mxCell>
        <mxCell id="-n4oUNv4abo9Lo2zfIX3-9" value="&lt;font&gt;RUNNING&lt;/font&gt;&lt;div&gt;&lt;span style=&quot;background-color: transparent;&quot;&gt;&lt;font&gt;LEFT&lt;/font&gt;&lt;/span&gt;&lt;/div&gt;" style="ellipse;whiteSpace=wrap;html=1;shadow=0;fontFamily=Helvetica;fontSize=24;align=center;strokeColor=#000000;strokeWidth=4;fillColor=#FFD966;fontStyle=1;gradientColor=#ffd966;" vertex="1" parent="1">
          <mxGeometry x="840" y="2240" width="180" height="180" as="geometry" />
        </mxCell>
        <mxCell id="-n4oUNv4abo9Lo2zfIX3-10" value="&lt;font&gt;ROLLING&lt;/font&gt;&lt;div&gt;&lt;font&gt;LEFT&lt;/font&gt;&lt;/div&gt;" style="ellipse;whiteSpace=wrap;html=1;shadow=0;fontFamily=Helvetica;fontSize=24;align=center;strokeColor=#000000;strokeWidth=4;fillColor=#FFD966;fontStyle=1;gradientColor=#ffd966;" vertex="1" parent="1">
          <mxGeometry x="1970" y="2610" width="180" height="180" as="geometry" />
        </mxCell>
        <mxCell id="-n4oUNv4abo9Lo2zfIX3-11" style="edgeStyle=orthogonalEdgeStyle;rounded=0;orthogonalLoop=1;jettySize=auto;html=1;exitX=0;exitY=0;exitDx=0;exitDy=0;entryX=1;entryY=1;entryDx=0;entryDy=0;curved=1;strokeWidth=4;fontSize=24;" edge="1" parent="1" source="-n4oUNv4abo9Lo2zfIX3-12" target="-n4oUNv4abo9Lo2zfIX3-10">
          <mxGeometry relative="1" as="geometry">
            <Array as="points">
              <mxPoint x="2366" y="2764" />
            </Array>
          </mxGeometry>
        </mxCell>
        <mxCell id="-n4oUNv4abo9Lo2zfIX3-12" value="&lt;font&gt;CROUCH&lt;/font&gt;&lt;div&gt;&lt;font&gt;WALK&lt;/font&gt;&lt;/div&gt;&lt;div&gt;&lt;font&gt;LEFT&lt;/font&gt;&lt;/div&gt;" style="ellipse;whiteSpace=wrap;html=1;shadow=0;fontFamily=Helvetica;fontSize=24;align=center;strokeColor=#000000;strokeWidth=4;fillColor=#FFD966;fontStyle=1;gradientColor=#ffd966;" vertex="1" parent="1">
          <mxGeometry x="2340" y="3300" width="180" height="180" as="geometry" />
        </mxCell>
        <mxCell id="-n4oUNv4abo9Lo2zfIX3-13" value="&lt;font&gt;ROLLING&lt;/font&gt;&lt;div&gt;&lt;font&gt;RIGHT&lt;/font&gt;&lt;/div&gt;" style="ellipse;whiteSpace=wrap;html=1;shadow=0;fontFamily=Helvetica;fontSize=24;align=center;strokeColor=#000000;strokeWidth=4;fillColor=#FFD966;fontStyle=1;gradientColor=#ffd966;" vertex="1" parent="1">
          <mxGeometry x="1970" y="2980" width="180" height="180" as="geometry" />
        </mxCell>
        <mxCell id="-n4oUNv4abo9Lo2zfIX3-14" style="edgeStyle=orthogonalEdgeStyle;rounded=0;orthogonalLoop=1;jettySize=auto;html=1;exitX=0;exitY=1;exitDx=0;exitDy=0;entryX=1;entryY=0.5;entryDx=0;entryDy=0;curved=1;strokeWidth=4;strokeColor=#000000;fontSize=24;" edge="1" parent="1" source="-n4oUNv4abo9Lo2zfIX3-15" target="-n4oUNv4abo9Lo2zfIX3-20">
          <mxGeometry relative="1" as="geometry">
            <Array as="points">
              <mxPoint x="2374" y="3070" />
            </Array>
          </mxGeometry>
        </mxCell>
        <mxCell id="-n4oUNv4abo9Lo2zfIX3-15" value="&lt;font&gt;CROUCH&lt;/font&gt;&lt;div&gt;&lt;font&gt;WALK&lt;/font&gt;&lt;/div&gt;&lt;div&gt;&lt;font&gt;RIGHT&lt;/font&gt;&lt;/div&gt;" style="ellipse;whiteSpace=wrap;html=1;shadow=0;fontFamily=Helvetica;fontSize=24;fontColor=#000000;align=center;strokeColor=#000000;strokeWidth=4;fillColor=#FFD966;fontStyle=1;" vertex="1" parent="1">
          <mxGeometry x="2348" y="2240" width="180" height="180" as="geometry" />
        </mxCell>
        <mxCell id="-n4oUNv4abo9Lo2zfIX3-16" style="edgeStyle=orthogonalEdgeStyle;rounded=0;orthogonalLoop=1;jettySize=auto;html=1;exitX=0;exitY=1;exitDx=0;exitDy=0;entryX=1;entryY=1;entryDx=0;entryDy=0;strokeWidth=4;strokeColor=light-dark(#000000,#EDEDED);curved=1;fontSize=24;" edge="1" parent="1" source="-n4oUNv4abo9Lo2zfIX3-17" target="-n4oUNv4abo9Lo2zfIX3-4">
          <mxGeometry relative="1" as="geometry">
            <Array as="points">
              <mxPoint x="1270" y="2764" />
            </Array>
          </mxGeometry>
        </mxCell>
        <mxCell id="-n4oUNv4abo9Lo2zfIX3-17" value="&lt;font&gt;ATTACK&lt;/font&gt;&lt;div&gt;&lt;font&gt;LEFT&lt;/font&gt;&lt;/div&gt;" style="ellipse;whiteSpace=wrap;html=1;shadow=0;fontFamily=Helvetica;fontSize=24;align=center;strokeColor=#000000;strokeWidth=4;fillColor=#FFD966;fontStyle=1;gradientColor=#ffd966;" vertex="1" parent="1">
          <mxGeometry x="1243.5" y="2610" width="180" height="180" as="geometry" />
        </mxCell>
        <mxCell id="-n4oUNv4abo9Lo2zfIX3-18" value="&lt;font&gt;CROUCH&lt;/font&gt;&lt;div&gt;&lt;font&gt;RIGHT&lt;/font&gt;&lt;/div&gt;" style="ellipse;whiteSpace=wrap;html=1;shadow=0;fontFamily=Helvetica;fontSize=24;align=center;strokeColor=#000000;strokeWidth=4;fillColor=#FFD966;fontStyle=1;gradientColor=#ffd966;" vertex="1" parent="1">
          <mxGeometry x="1596" y="2240" width="180" height="180" as="geometry" />
        </mxCell>
        <mxCell id="-n4oUNv4abo9Lo2zfIX3-19" style="edgeStyle=orthogonalEdgeStyle;rounded=0;orthogonalLoop=1;jettySize=auto;html=1;exitX=0;exitY=0;exitDx=0;exitDy=0;entryX=1;entryY=0;entryDx=0;entryDy=0;strokeWidth=4;curved=1;fontSize=24;" edge="1" parent="1" source="-n4oUNv4abo9Lo2zfIX3-20" target="-n4oUNv4abo9Lo2zfIX3-2">
          <mxGeometry relative="1" as="geometry" />
        </mxCell>
        <mxCell id="-n4oUNv4abo9Lo2zfIX3-20" value="&lt;font&gt;ATTACK&lt;/font&gt;&lt;div&gt;&lt;span style=&quot;background-color: transparent;&quot;&gt;&lt;font&gt;RIGHT&lt;/font&gt;&lt;/span&gt;&lt;/div&gt;" style="ellipse;whiteSpace=wrap;html=1;shadow=0;fontFamily=Helvetica;fontSize=24;align=center;strokeColor=#000000;strokeWidth=4;fillColor=#FFD966;fontStyle=1;gradientColor=#ffd966;" vertex="1" parent="1">
          <mxGeometry x="1241" y="2980" width="180" height="180" as="geometry" />
        </mxCell>
        <mxCell id="-n4oUNv4abo9Lo2zfIX3-21" style="edgeStyle=orthogonalEdgeStyle;rounded=0;orthogonalLoop=1;jettySize=auto;html=1;exitX=1;exitY=1;exitDx=0;exitDy=0;entryX=0.5;entryY=1;entryDx=0;entryDy=0;curved=1;strokeWidth=4;fontSize=24;" edge="1" parent="1" source="-n4oUNv4abo9Lo2zfIX3-22" target="-n4oUNv4abo9Lo2zfIX3-13">
          <mxGeometry relative="1" as="geometry">
            <Array as="points">
              <mxPoint x="994" y="3660" />
              <mxPoint x="2060" y="3660" />
            </Array>
          </mxGeometry>
        </mxCell>
        <mxCell id="-n4oUNv4abo9Lo2zfIX3-22" value="&lt;font&gt;RUNNING&lt;/font&gt;&lt;div&gt;&lt;font&gt;RIGHT&lt;/font&gt;&lt;/div&gt;" style="ellipse;whiteSpace=wrap;html=1;shadow=0;fontFamily=Helvetica;fontSize=24;align=center;strokeColor=#000000;strokeWidth=4;fillColor=#FFD966;fontStyle=1;gradientColor=#ffd966;" vertex="1" parent="1">
          <mxGeometry x="840" y="3300" width="180" height="180" as="geometry" />
        </mxCell>
        <mxCell id="-n4oUNv4abo9Lo2zfIX3-23" style="edgeStyle=orthogonalEdgeStyle;rounded=0;orthogonalLoop=1;jettySize=auto;html=1;entryX=0;entryY=1;entryDx=0;entryDy=0;curved=1;strokeWidth=4;exitX=0;exitY=1;exitDx=0;exitDy=0;fontSize=24;" edge="1" parent="1" source="-n4oUNv4abo9Lo2zfIX3-24" target="-n4oUNv4abo9Lo2zfIX3-4">
          <mxGeometry relative="1" as="geometry">
            <Array as="points">
              <mxPoint x="1617" y="3520" />
              <mxPoint x="430" y="3520" />
              <mxPoint x="430" y="2764" />
            </Array>
          </mxGeometry>
        </mxCell>
        <mxCell id="-n4oUNv4abo9Lo2zfIX3-24" value="&lt;font&gt;CROUCH&lt;/font&gt;&lt;div&gt;&lt;font&gt;LEFT&lt;/font&gt;&lt;/div&gt;" style="ellipse;whiteSpace=wrap;html=1;shadow=0;fontFamily=Helvetica;fontSize=24;align=center;strokeColor=#000000;strokeWidth=4;fillColor=#FFD966;fontStyle=1;gradientColor=#ffd966;" vertex="1" parent="1">
          <mxGeometry x="1591" y="3300" width="180" height="180" as="geometry" />
        </mxCell>
        <mxCell id="-n4oUNv4abo9Lo2zfIX3-25" style="edgeStyle=orthogonalEdgeStyle;rounded=0;orthogonalLoop=1;jettySize=auto;html=1;exitX=0.5;exitY=0;exitDx=0;exitDy=0;entryX=0;entryY=0;entryDx=0;entryDy=0;strokeWidth=4;strokeColor=light-dark(#000000,#EDEDED);curved=1;fontSize=24;" edge="1" parent="1" source="-n4oUNv4abo9Lo2zfIX3-2" target="-n4oUNv4abo9Lo2zfIX3-9">
          <mxGeometry relative="1" as="geometry">
            <Array as="points">
              <mxPoint x="440" y="2980" />
              <mxPoint x="440" y="2266" />
            </Array>
          </mxGeometry>
        </mxCell>
        <mxCell id="-n4oUNv4abo9Lo2zfIX3-26" value="" style="edgeStyle=orthogonalEdgeStyle;rounded=0;orthogonalLoop=1;jettySize=auto;html=1;exitX=0;exitY=0;exitDx=0;exitDy=0;entryX=0;entryY=0;entryDx=0;entryDy=0;strokeWidth=4;fontSize=24;fontStyle=1;curved=1;strokeColor=light-dark(#000000,#EDEDED);" edge="1" parent="1" source="-n4oUNv4abo9Lo2zfIX3-2" target="-n4oUNv4abo9Lo2zfIX3-18">
          <mxGeometry x="0.0316" y="-20" relative="1" as="geometry">
            <Array as="points">
              <mxPoint x="380" y="3006" />
              <mxPoint x="380" y="2200" />
              <mxPoint x="1622" y="2200" />
            </Array>
            <mxPoint as="offset" />
          </mxGeometry>
        </mxCell>
        <mxCell id="-n4oUNv4abo9Lo2zfIX3-27" style="edgeStyle=orthogonalEdgeStyle;rounded=0;orthogonalLoop=1;jettySize=auto;html=1;entryX=0;entryY=0.5;entryDx=0;entryDy=0;curved=1;strokeWidth=4;exitX=0.5;exitY=0;exitDx=0;exitDy=0;strokeColor=light-dark(#000000,#EDEDED);fontSize=24;" edge="1" parent="1" source="-n4oUNv4abo9Lo2zfIX3-4" target="-n4oUNv4abo9Lo2zfIX3-9">
          <mxGeometry relative="1" as="geometry">
            <mxPoint x="660" y="2700" as="sourcePoint" />
            <Array as="points">
              <mxPoint x="564" y="2330" />
            </Array>
          </mxGeometry>
        </mxCell>
        <mxCell id="-n4oUNv4abo9Lo2zfIX3-28" style="edgeStyle=orthogonalEdgeStyle;rounded=0;orthogonalLoop=1;jettySize=auto;html=1;exitX=1;exitY=0.5;exitDx=0;exitDy=0;curved=1;strokeWidth=4;strokeColor=light-dark(#000000,#EDEDED);entryX=0;entryY=0;entryDx=0;entryDy=0;fontSize=24;" edge="1" parent="1" source="-n4oUNv4abo9Lo2zfIX3-4" target="-n4oUNv4abo9Lo2zfIX3-22">
          <mxGeometry relative="1" as="geometry">
            <mxPoint x="1080" y="3190" as="targetPoint" />
            <Array as="points">
              <mxPoint x="866" y="2700" />
            </Array>
          </mxGeometry>
        </mxCell>
        <mxCell id="-n4oUNv4abo9Lo2zfIX3-29" style="edgeStyle=orthogonalEdgeStyle;rounded=0;orthogonalLoop=1;jettySize=auto;html=1;entryX=0;entryY=0.5;entryDx=0;entryDy=0;curved=1;strokeWidth=4;strokeColor=light-dark(#000000,#EDEDED);exitX=1;exitY=0.5;exitDx=0;exitDy=0;fontSize=24;" edge="1" parent="1" source="-n4oUNv4abo9Lo2zfIX3-4" target="-n4oUNv4abo9Lo2zfIX3-17">
          <mxGeometry relative="1" as="geometry">
            <mxPoint x="690" y="2730" as="sourcePoint" />
            <Array as="points">
              <mxPoint x="1180" y="2700" />
              <mxPoint x="1180" y="2700" />
            </Array>
          </mxGeometry>
        </mxCell>
        <mxCell id="-n4oUNv4abo9Lo2zfIX3-30" style="edgeStyle=orthogonalEdgeStyle;rounded=0;orthogonalLoop=1;jettySize=auto;html=1;exitX=0.5;exitY=0;exitDx=0;exitDy=0;entryX=0;entryY=0;entryDx=0;entryDy=0;curved=1;strokeWidth=4;strokeColor=light-dark(#000000,#EDEDED);fontSize=24;" edge="1" parent="1" source="-n4oUNv4abo9Lo2zfIX3-4" target="-n4oUNv4abo9Lo2zfIX3-10">
          <mxGeometry relative="1" as="geometry">
            <Array as="points">
              <mxPoint x="564" y="2480" />
              <mxPoint x="1996" y="2480" />
            </Array>
          </mxGeometry>
        </mxCell>
        <mxCell id="-n4oUNv4abo9Lo2zfIX3-31" style="edgeStyle=orthogonalEdgeStyle;rounded=0;orthogonalLoop=1;jettySize=auto;html=1;exitX=0;exitY=1;exitDx=0;exitDy=0;entryX=0;entryY=1;entryDx=0;entryDy=0;curved=1;strokeWidth=4;strokeColor=light-dark(#000000,#EDEDED);fontSize=24;" edge="1" parent="1" source="-n4oUNv4abo9Lo2zfIX3-22" target="-n4oUNv4abo9Lo2zfIX3-2">
          <mxGeometry relative="1" as="geometry">
            <Array as="points">
              <mxPoint x="495" y="3454" />
            </Array>
          </mxGeometry>
        </mxCell>
        <mxCell id="-n4oUNv4abo9Lo2zfIX3-32" style="edgeStyle=orthogonalEdgeStyle;rounded=0;orthogonalLoop=1;jettySize=auto;html=1;entryX=0.5;entryY=1;entryDx=0;entryDy=0;curved=1;exitX=0.5;exitY=0;exitDx=0;exitDy=0;strokeWidth=4;strokeColor=light-dark(#000000,#EDEDED);fontSize=24;" edge="1" parent="1" source="-n4oUNv4abo9Lo2zfIX3-22" target="-n4oUNv4abo9Lo2zfIX3-9">
          <mxGeometry relative="1" as="geometry">
            <Array as="points" />
          </mxGeometry>
        </mxCell>
        <mxCell id="-n4oUNv4abo9Lo2zfIX3-33" style="edgeStyle=orthogonalEdgeStyle;rounded=0;orthogonalLoop=1;jettySize=auto;html=1;entryX=1;entryY=0;entryDx=0;entryDy=0;curved=1;strokeWidth=4;strokeColor=light-dark(#000000,#EDEDED);fontSize=24;" edge="1" parent="1" source="-n4oUNv4abo9Lo2zfIX3-22" target="-n4oUNv4abo9Lo2zfIX3-4">
          <mxGeometry relative="1" as="geometry">
            <Array as="points">
              <mxPoint x="930" y="2636" />
            </Array>
          </mxGeometry>
        </mxCell>
        <mxCell id="-n4oUNv4abo9Lo2zfIX3-34" style="edgeStyle=orthogonalEdgeStyle;rounded=0;orthogonalLoop=1;jettySize=auto;html=1;entryX=0.5;entryY=0;entryDx=0;entryDy=0;strokeWidth=4;strokeColor=light-dark(#000000,#EDEDED);curved=1;exitX=1;exitY=0;exitDx=0;exitDy=0;fontSize=24;" edge="1" parent="1" source="-n4oUNv4abo9Lo2zfIX3-9" target="-n4oUNv4abo9Lo2zfIX3-10">
          <mxGeometry relative="1" as="geometry">
            <Array as="points">
              <mxPoint x="1500" y="2266" />
              <mxPoint x="1500" y="2470" />
              <mxPoint x="2060" y="2470" />
            </Array>
          </mxGeometry>
        </mxCell>
        <mxCell id="-n4oUNv4abo9Lo2zfIX3-35" style="edgeStyle=orthogonalEdgeStyle;rounded=0;orthogonalLoop=1;jettySize=auto;html=1;entryX=0.5;entryY=1;entryDx=0;entryDy=0;strokeWidth=4;strokeColor=light-dark(#000000,#EDEDED);curved=1;exitX=0.5;exitY=1;exitDx=0;exitDy=0;fontSize=24;" edge="1" parent="1" source="-n4oUNv4abo9Lo2zfIX3-10" target="-n4oUNv4abo9Lo2zfIX3-4">
          <mxGeometry relative="1" as="geometry">
            <Array as="points">
              <mxPoint x="2060" y="2820" />
              <mxPoint x="564" y="2820" />
            </Array>
          </mxGeometry>
        </mxCell>
        <mxCell id="-n4oUNv4abo9Lo2zfIX3-36" style="edgeStyle=orthogonalEdgeStyle;rounded=0;orthogonalLoop=1;jettySize=auto;html=1;entryX=1;entryY=1;entryDx=0;entryDy=0;strokeWidth=4;strokeColor=light-dark(#000000,#EDEDED);curved=1;exitX=0;exitY=1;exitDx=0;exitDy=0;fontSize=24;" edge="1" parent="1" source="-n4oUNv4abo9Lo2zfIX3-13" target="-n4oUNv4abo9Lo2zfIX3-2">
          <mxGeometry relative="1" as="geometry">
            <Array as="points">
              <mxPoint x="1996" y="3230" />
              <mxPoint x="622" y="3230" />
            </Array>
          </mxGeometry>
        </mxCell>
        <mxCell id="-n4oUNv4abo9Lo2zfIX3-37" style="edgeStyle=orthogonalEdgeStyle;rounded=0;orthogonalLoop=1;jettySize=auto;html=1;entryX=1;entryY=0;entryDx=0;entryDy=0;strokeWidth=4;strokeColor=light-dark(#000000,#EDEDED);curved=1;exitX=1;exitY=1;exitDx=0;exitDy=0;fontSize=24;" edge="1" parent="1" source="-n4oUNv4abo9Lo2zfIX3-18" target="-n4oUNv4abo9Lo2zfIX3-12">
          <mxGeometry relative="1" as="geometry">
            <Array as="points">
              <mxPoint x="2494" y="2394" />
            </Array>
          </mxGeometry>
        </mxCell>
        <mxCell id="-n4oUNv4abo9Lo2zfIX3-38" style="edgeStyle=orthogonalEdgeStyle;rounded=0;orthogonalLoop=1;jettySize=auto;html=1;entryX=0;entryY=0.5;entryDx=0;entryDy=0;strokeWidth=4;strokeColor=light-dark(#000000,#EDEDED);curved=1;exitX=1;exitY=0.5;exitDx=0;exitDy=0;fontSize=24;" edge="1" parent="1" source="-n4oUNv4abo9Lo2zfIX3-18" target="-n4oUNv4abo9Lo2zfIX3-15">
          <mxGeometry relative="1" as="geometry">
            <Array as="points">
              <mxPoint x="2060" y="2330" />
              <mxPoint x="2060" y="2330" />
            </Array>
          </mxGeometry>
        </mxCell>
        <mxCell id="-n4oUNv4abo9Lo2zfIX3-39" style="edgeStyle=orthogonalEdgeStyle;rounded=0;orthogonalLoop=1;jettySize=auto;html=1;entryX=0;entryY=0.5;entryDx=0;entryDy=0;strokeWidth=4;strokeColor=light-dark(#000000,#EDEDED);curved=1;exitX=0.5;exitY=0;exitDx=0;exitDy=0;fontSize=24;" edge="1" parent="1" source="-n4oUNv4abo9Lo2zfIX3-18" target="-n4oUNv4abo9Lo2zfIX3-2">
          <mxGeometry relative="1" as="geometry">
            <Array as="points">
              <mxPoint x="1686" y="2140" />
              <mxPoint x="330" y="2140" />
              <mxPoint x="330" y="3070" />
            </Array>
          </mxGeometry>
        </mxCell>
        <mxCell id="-n4oUNv4abo9Lo2zfIX3-40" style="edgeStyle=orthogonalEdgeStyle;rounded=0;orthogonalLoop=1;jettySize=auto;html=1;entryX=1;entryY=0;entryDx=0;entryDy=0;strokeWidth=4;strokeColor=light-dark(#000000,#EDEDED);curved=1;exitX=0;exitY=1;exitDx=0;exitDy=0;fontSize=24;" edge="1" parent="1" source="-n4oUNv4abo9Lo2zfIX3-18" target="-n4oUNv4abo9Lo2zfIX3-20">
          <mxGeometry relative="1" as="geometry">
            <Array as="points">
              <mxPoint x="1622" y="3006" />
            </Array>
          </mxGeometry>
        </mxCell>
        <mxCell id="-n4oUNv4abo9Lo2zfIX3-41" style="edgeStyle=orthogonalEdgeStyle;rounded=0;orthogonalLoop=1;jettySize=auto;html=1;entryX=0;entryY=0;entryDx=0;entryDy=0;strokeWidth=4;strokeColor=light-dark(#000000,#EDEDED);curved=1;exitX=0.5;exitY=1;exitDx=0;exitDy=0;fontSize=24;" edge="1" parent="1" source="-n4oUNv4abo9Lo2zfIX3-18" target="-n4oUNv4abo9Lo2zfIX3-13">
          <mxGeometry relative="1" as="geometry">
            <Array as="points">
              <mxPoint x="1686" y="3006" />
            </Array>
          </mxGeometry>
        </mxCell>
        <mxCell id="-n4oUNv4abo9Lo2zfIX3-42" style="edgeStyle=orthogonalEdgeStyle;rounded=0;orthogonalLoop=1;jettySize=auto;html=1;entryX=0;entryY=0.5;entryDx=0;entryDy=0;strokeWidth=4;strokeColor=light-dark(#000000,#EDEDED);curved=1;exitX=1;exitY=0.5;exitDx=0;exitDy=0;fontSize=24;" edge="1" parent="1" source="-n4oUNv4abo9Lo2zfIX3-24" target="-n4oUNv4abo9Lo2zfIX3-12">
          <mxGeometry relative="1" as="geometry">
            <mxPoint x="1900" y="3410" as="sourcePoint" />
            <Array as="points">
              <mxPoint x="1771" y="3390" />
            </Array>
          </mxGeometry>
        </mxCell>
        <mxCell id="-n4oUNv4abo9Lo2zfIX3-43" style="edgeStyle=orthogonalEdgeStyle;rounded=0;orthogonalLoop=1;jettySize=auto;html=1;strokeWidth=4;strokeColor=light-dark(#000000,#EDEDED);curved=1;exitX=1;exitY=0;exitDx=0;exitDy=0;entryX=1;entryY=0.5;entryDx=0;entryDy=0;fontSize=24;" edge="1" parent="1" source="-n4oUNv4abo9Lo2zfIX3-24" target="-n4oUNv4abo9Lo2zfIX3-15">
          <mxGeometry relative="1" as="geometry">
            <Array as="points">
              <mxPoint x="2550" y="3326" />
              <mxPoint x="2550" y="2330" />
            </Array>
            <mxPoint x="1784.139610306789" y="3326.3603896932104" as="sourcePoint" />
            <mxPoint x="2567.5" y="2330" as="targetPoint" />
          </mxGeometry>
        </mxCell>
        <mxCell id="-n4oUNv4abo9Lo2zfIX3-44" style="edgeStyle=orthogonalEdgeStyle;rounded=0;orthogonalLoop=1;jettySize=auto;html=1;entryX=1;entryY=0.5;entryDx=0;entryDy=0;strokeWidth=4;strokeColor=light-dark(#000000,#EDEDED);curved=1;fontSize=24;" edge="1" parent="1" source="-n4oUNv4abo9Lo2zfIX3-24" target="-n4oUNv4abo9Lo2zfIX3-17">
          <mxGeometry relative="1" as="geometry">
            <Array as="points">
              <mxPoint x="1510" y="3390" />
              <mxPoint x="1510" y="2700" />
            </Array>
          </mxGeometry>
        </mxCell>
        <mxCell id="-n4oUNv4abo9Lo2zfIX3-45" style="edgeStyle=orthogonalEdgeStyle;rounded=0;orthogonalLoop=1;jettySize=auto;html=1;entryX=0;entryY=0.5;entryDx=0;entryDy=0;strokeWidth=4;strokeColor=light-dark(#000000,#EDEDED);curved=1;exitX=0.5;exitY=0;exitDx=0;exitDy=0;fontSize=24;" edge="1" parent="1" source="-n4oUNv4abo9Lo2zfIX3-24" target="-n4oUNv4abo9Lo2zfIX3-10">
          <mxGeometry relative="1" as="geometry">
            <Array as="points">
              <mxPoint x="1680" y="3300" />
              <mxPoint x="1680" y="2700" />
            </Array>
          </mxGeometry>
        </mxCell>
        <mxCell id="-n4oUNv4abo9Lo2zfIX3-46" style="edgeStyle=orthogonalEdgeStyle;rounded=0;orthogonalLoop=1;jettySize=auto;html=1;entryX=1;entryY=0;entryDx=0;entryDy=0;strokeWidth=4;strokeColor=light-dark(#000000,#EDEDED);curved=1;exitX=0;exitY=0;exitDx=0;exitDy=0;fontSize=24;" edge="1" parent="1" source="-n4oUNv4abo9Lo2zfIX3-15" target="-n4oUNv4abo9Lo2zfIX3-18">
          <mxGeometry relative="1" as="geometry">
            <Array as="points">
              <mxPoint x="2270" y="2266" />
              <mxPoint x="2270" y="2266" />
            </Array>
          </mxGeometry>
        </mxCell>
        <mxCell id="-n4oUNv4abo9Lo2zfIX3-47" style="edgeStyle=orthogonalEdgeStyle;rounded=0;orthogonalLoop=1;jettySize=auto;html=1;entryX=1;entryY=0;entryDx=0;entryDy=0;strokeWidth=4;strokeColor=light-dark(#000000,#EDEDED);curved=1;exitX=0.5;exitY=1;exitDx=0;exitDy=0;fontSize=24;" edge="1" parent="1" source="-n4oUNv4abo9Lo2zfIX3-15" target="-n4oUNv4abo9Lo2zfIX3-13">
          <mxGeometry relative="1" as="geometry">
            <Array as="points">
              <mxPoint x="2438" y="3006" />
            </Array>
          </mxGeometry>
        </mxCell>
        <mxCell id="-n4oUNv4abo9Lo2zfIX3-48" style="edgeStyle=orthogonalEdgeStyle;rounded=0;orthogonalLoop=1;jettySize=auto;html=1;entryX=1;entryY=1;entryDx=0;entryDy=0;strokeWidth=4;strokeColor=light-dark(#000000,#EDEDED);curved=1;exitX=0;exitY=1;exitDx=0;exitDy=0;fontSize=24;" edge="1" parent="1" source="-n4oUNv4abo9Lo2zfIX3-12" target="-n4oUNv4abo9Lo2zfIX3-24">
          <mxGeometry relative="1" as="geometry">
            <Array as="points">
              <mxPoint x="1820" y="3454" />
              <mxPoint x="1820" y="3454" />
            </Array>
          </mxGeometry>
        </mxCell>
        <mxCell id="-n4oUNv4abo9Lo2zfIX3-49" style="edgeStyle=orthogonalEdgeStyle;rounded=0;orthogonalLoop=1;jettySize=auto;html=1;strokeWidth=4;strokeColor=light-dark(#000000,#EDEDED);curved=1;exitX=1;exitY=1;exitDx=0;exitDy=0;entryX=0;entryY=1;entryDx=0;entryDy=0;fontSize=24;" edge="1" parent="1" source="-n4oUNv4abo9Lo2zfIX3-15" target="-n4oUNv4abo9Lo2zfIX3-2">
          <mxGeometry relative="1" as="geometry">
            <Array as="points">
              <mxPoint x="2490" y="2394" />
              <mxPoint x="2490" y="3270" />
              <mxPoint x="495" y="3270" />
            </Array>
            <mxPoint x="620" y="3010" as="targetPoint" />
          </mxGeometry>
        </mxCell>
        <mxCell id="-n4oUNv4abo9Lo2zfIX3-50" style="edgeStyle=orthogonalEdgeStyle;rounded=0;orthogonalLoop=1;jettySize=auto;html=1;entryX=0;entryY=0.5;entryDx=0;entryDy=0;fontSize=24;fontStyle=1;strokeWidth=4;exitX=1;exitY=0.5;exitDx=0;exitDy=0;curved=1;strokeColor=light-dark(#000000,#EDEDED);" edge="1" parent="1" source="-n4oUNv4abo9Lo2zfIX3-2" target="-n4oUNv4abo9Lo2zfIX3-13">
          <mxGeometry relative="1" as="geometry">
            <Array as="points">
              <mxPoint x="649" y="3180" />
              <mxPoint x="1970" y="3180" />
            </Array>
          </mxGeometry>
        </mxCell>
        <mxCell id="-n4oUNv4abo9Lo2zfIX3-51" value="" style="edgeStyle=orthogonalEdgeStyle;rounded=0;orthogonalLoop=1;jettySize=auto;html=1;exitX=1;exitY=0.5;exitDx=0;exitDy=0;entryX=0;entryY=1;entryDx=0;entryDy=0;curved=1;strokeWidth=4;strokeColor=light-dark(#000000,#EDEDED);fontSize=24;" edge="1" parent="1" source="-n4oUNv4abo9Lo2zfIX3-22" target="-n4oUNv4abo9Lo2zfIX3-20">
          <mxGeometry relative="1" as="geometry">
            <mxPoint x="990" y="3830" as="sourcePoint" />
            <mxPoint x="627" y="2636" as="targetPoint" />
            <Array as="points">
              <mxPoint x="1267" y="3390" />
              <mxPoint x="1267" y="3134" />
            </Array>
          </mxGeometry>
        </mxCell>
        <mxCell id="-n4oUNv4abo9Lo2zfIX3-52" value="" style="edgeStyle=orthogonalEdgeStyle;rounded=0;orthogonalLoop=1;jettySize=auto;html=1;entryX=0;entryY=0;entryDx=0;entryDy=0;strokeWidth=4;strokeColor=light-dark(#000000,#EDEDED);curved=1;exitX=1;exitY=1;exitDx=0;exitDy=0;fontSize=24;" edge="1" parent="1" source="-n4oUNv4abo9Lo2zfIX3-9" target="-n4oUNv4abo9Lo2zfIX3-17">
          <mxGeometry relative="1" as="geometry">
            <mxPoint x="1104" y="2280" as="sourcePoint" />
            <mxPoint x="1867" y="3766" as="targetPoint" />
            <Array as="points">
              <mxPoint x="994" y="2636" />
            </Array>
          </mxGeometry>
        </mxCell>
        <mxCell id="-n4oUNv4abo9Lo2zfIX3-53" value="" style="edgeStyle=orthogonalEdgeStyle;rounded=0;orthogonalLoop=1;jettySize=auto;html=1;entryX=0;entryY=0.5;entryDx=0;entryDy=0;strokeWidth=4;fontSize=24;fontStyle=1;curved=1;exitX=0.5;exitY=1;exitDx=0;exitDy=0;strokeColor=light-dark(#000000,#EDEDED);" edge="1" parent="1" source="-n4oUNv4abo9Lo2zfIX3-2" target="-n4oUNv4abo9Lo2zfIX3-22">
          <mxGeometry relative="1" as="geometry">
            <mxPoint x="572" y="3160" as="sourcePoint" />
            <mxPoint x="1270" y="2636" as="targetPoint" />
            <Array as="points">
              <mxPoint x="559" y="3390" />
            </Array>
          </mxGeometry>
        </mxCell>
        <mxCell id="-n4oUNv4abo9Lo2zfIX3-54" value="" style="ellipse;whiteSpace=wrap;html=1;aspect=fixed;fillColor=none;strokeWidth=4;strokeColor=#000000;fontColor=#FFFFFF;fontSize=24;" vertex="1" parent="1">
          <mxGeometry x="488.5" y="2625" width="150" height="150" as="geometry" />
        </mxCell>
        <mxCell id="-n4oUNv4abo9Lo2zfIX3-55" style="edgeStyle=orthogonalEdgeStyle;rounded=0;orthogonalLoop=1;jettySize=auto;html=1;exitX=1;exitY=0;exitDx=0;exitDy=0;entryX=0;entryY=0.5;entryDx=0;entryDy=0;strokeWidth=4;curved=1;fontSize=24;" edge="1" parent="1" source="-n4oUNv4abo9Lo2zfIX3-22" target="-n4oUNv4abo9Lo2zfIX3-18">
          <mxGeometry relative="1" as="geometry">
            <Array as="points">
              <mxPoint x="994" y="2330" />
            </Array>
          </mxGeometry>
        </mxCell>
        <mxCell id="-n4oUNv4abo9Lo2zfIX3-56" value="" style="ellipse;whiteSpace=wrap;html=1;aspect=fixed;fillColor=none;strokeWidth=4;strokeColor=#000000;fontColor=#FFFFFF;fontSize=24;" vertex="1" parent="1">
          <mxGeometry x="855" y="3315" width="150" height="150" as="geometry" />
        </mxCell>
        <mxCell id="-n4oUNv4abo9Lo2zfIX3-57" value="" style="ellipse;whiteSpace=wrap;html=1;aspect=fixed;fillColor=none;strokeWidth=4;strokeColor=#000000;fontColor=#FFFFFF;fontSize=24;" vertex="1" parent="1">
          <mxGeometry x="855" y="2255" width="150" height="150" as="geometry" />
        </mxCell>
        <mxCell id="-n4oUNv4abo9Lo2zfIX3-58" value="" style="ellipse;whiteSpace=wrap;html=1;aspect=fixed;fillColor=none;strokeWidth=4;strokeColor=light-dark(#000000,#EDEDED);fontSize=24;" vertex="1" parent="1">
          <mxGeometry x="483.5" y="2995" width="150" height="150" as="geometry" />
        </mxCell>
        <mxCell id="-n4oUNv4abo9Lo2zfIX3-59" value="" style="ellipse;whiteSpace=wrap;html=1;aspect=fixed;fillColor=none;strokeWidth=4;strokeColor=#000000;fontColor=#FFFFFF;fontSize=24;" vertex="1" parent="1">
          <mxGeometry x="1606" y="3315" width="150" height="150" as="geometry" />
        </mxCell>
        <mxCell id="-n4oUNv4abo9Lo2zfIX3-60" style="edgeStyle=orthogonalEdgeStyle;rounded=0;orthogonalLoop=1;jettySize=auto;html=1;entryX=0.5;entryY=0;entryDx=0;entryDy=0;strokeWidth=4;curved=1;exitX=0.5;exitY=0;exitDx=0;exitDy=0;strokeColor=light-dark(#000000,#EDEDED);fontSize=24;" edge="1" parent="1" source="-n4oUNv4abo9Lo2zfIX3-12" target="-n4oUNv4abo9Lo2zfIX3-17">
          <mxGeometry relative="1" as="geometry">
            <Array as="points">
              <mxPoint x="2430" y="2530" />
              <mxPoint x="1333" y="2530" />
            </Array>
          </mxGeometry>
        </mxCell>
        <mxCell id="-n4oUNv4abo9Lo2zfIX3-61" style="edgeStyle=orthogonalEdgeStyle;rounded=0;orthogonalLoop=1;jettySize=auto;html=1;entryX=0;entryY=0;entryDx=0;entryDy=0;curved=1;strokeWidth=4;exitX=0.5;exitY=1;exitDx=0;exitDy=0;fontSize=24;" edge="1" parent="1" source="-n4oUNv4abo9Lo2zfIX3-12" target="-n4oUNv4abo9Lo2zfIX3-4">
          <mxGeometry relative="1" as="geometry">
            <Array as="points">
              <mxPoint x="2430" y="3490" />
              <mxPoint x="1680" y="3490" />
              <mxPoint x="1680" y="3610" />
              <mxPoint x="330" y="3610" />
              <mxPoint x="330" y="2636" />
            </Array>
          </mxGeometry>
        </mxCell>
        <mxCell id="-n4oUNv4abo9Lo2zfIX3-62" value="" style="ellipse;whiteSpace=wrap;html=1;aspect=fixed;fillColor=none;strokeWidth=4;strokeColor=#000000;fontColor=#FFFFFF;fontSize=24;" vertex="1" parent="1">
          <mxGeometry x="2355" y="3315" width="150" height="150" as="geometry" />
        </mxCell>
        <mxCell id="-n4oUNv4abo9Lo2zfIX3-63" value="" style="ellipse;whiteSpace=wrap;html=1;aspect=fixed;fillColor=none;strokeWidth=4;strokeColor=#000000;fontColor=#FFFFFF;fontSize=24;" vertex="1" parent="1">
          <mxGeometry x="1611" y="2255" width="150" height="150" as="geometry" />
        </mxCell>
        <mxCell id="-n4oUNv4abo9Lo2zfIX3-64" value="" style="ellipse;whiteSpace=wrap;html=1;aspect=fixed;fillColor=none;strokeWidth=4;strokeColor=#000000;fontSize=24;gradientColor=#ffd966;fontColor=#000000;" vertex="1" parent="1">
          <mxGeometry x="2363" y="2255" width="150" height="150" as="geometry" />
        </mxCell>
        <mxCell id="-n4oUNv4abo9Lo2zfIX3-65" value="Press A" style="text;html=1;align=center;verticalAlign=middle;whiteSpace=wrap;rounded=0;fontSize=24;fontStyle=1;rotation=-30;strokeColor=none;strokeWidth=4;" vertex="1" parent="1">
          <mxGeometry x="613.46" y="2340.38" width="111.5" height="20" as="geometry" />
        </mxCell>
        <mxCell id="-n4oUNv4abo9Lo2zfIX3-66" value="Press D" style="text;html=1;align=center;verticalAlign=middle;whiteSpace=wrap;rounded=0;fontSize=24;fontStyle=1;rotation=72;strokeColor=none;strokeWidth=4;" vertex="1" parent="1">
          <mxGeometry x="789.63" y="2855.73" width="91" height="20" as="geometry" />
        </mxCell>
        <mxCell id="-n4oUNv4abo9Lo2zfIX3-67" value="Press A" style="text;html=1;align=center;verticalAlign=middle;whiteSpace=wrap;rounded=0;fontSize=24;fontStyle=1;rotation=274;strokeColor=none;strokeWidth=4;" vertex="1" parent="1">
          <mxGeometry x="368.25" y="2567.75" width="111.5" height="20" as="geometry" />
        </mxCell>
        <mxCell id="-n4oUNv4abo9Lo2zfIX3-68" value="Press D" style="text;html=1;align=center;verticalAlign=middle;whiteSpace=wrap;rounded=0;fontSize=24;fontStyle=1;rotation=55;strokeColor=none;strokeWidth=4;" vertex="1" parent="1">
          <mxGeometry x="567.11" y="3276.66" width="87.5" height="20" as="geometry" />
        </mxCell>
        <mxCell id="-n4oUNv4abo9Lo2zfIX3-69" value="Press C" style="text;html=1;align=center;verticalAlign=middle;whiteSpace=wrap;rounded=0;fontSize=24;fontStyle=1;rotation=274;strokeColor=none;strokeWidth=4;" vertex="1" parent="1">
          <mxGeometry x="308.5" y="2563.5" width="110" height="20" as="geometry" />
        </mxCell>
        <mxCell id="-n4oUNv4abo9Lo2zfIX3-70" value="Press V" style="text;html=1;align=center;verticalAlign=middle;whiteSpace=wrap;rounded=0;fontSize=24;fontStyle=1;rotation=353;strokeColor=none;strokeWidth=4;" vertex="1" parent="1">
          <mxGeometry x="657.44" y="2912.09" width="86.5" height="20" as="geometry" />
        </mxCell>
        <mxCell id="-n4oUNv4abo9Lo2zfIX3-71" value="Press Space" style="text;html=1;align=center;verticalAlign=middle;whiteSpace=wrap;rounded=0;fontSize=24;fontStyle=1;rotation=0;strokeColor=none;strokeWidth=4;" vertex="1" parent="1">
          <mxGeometry x="1034" y="3147" width="168.5" height="20" as="geometry" />
        </mxCell>
        <mxCell id="-n4oUNv4abo9Lo2zfIX3-72" value="Press Space" style="text;html=1;align=center;verticalAlign=middle;whiteSpace=wrap;rounded=0;fontSize=24;fontStyle=1;rotation=0;strokeColor=none;strokeWidth=4;" vertex="1" parent="1">
          <mxGeometry x="1039.5" y="2453" width="163.5" height="20" as="geometry" />
        </mxCell>
        <mxCell id="-n4oUNv4abo9Lo2zfIX3-73" value="Press V" style="text;html=1;align=center;verticalAlign=middle;whiteSpace=wrap;rounded=0;fontSize=24;fontStyle=1;rotation=0;strokeColor=none;strokeWidth=4;" vertex="1" parent="1">
          <mxGeometry x="941" y="2675" width="117.5" height="20" as="geometry" />
        </mxCell>
        <mxCell id="-n4oUNv4abo9Lo2zfIX3-74" value="Press Z" style="text;html=1;align=center;verticalAlign=middle;whiteSpace=wrap;rounded=0;fontSize=24;fontStyle=1;rotation=55;strokeColor=none;strokeWidth=4;" vertex="1" parent="1">
          <mxGeometry x="451" y="3329" width="117.5" height="20" as="geometry" />
        </mxCell>
        <mxCell id="-n4oUNv4abo9Lo2zfIX3-75" value="Press A" style="text;html=1;align=center;verticalAlign=middle;whiteSpace=wrap;rounded=0;fontSize=24;fontStyle=1;rotation=-90;strokeColor=none;strokeWidth=4;" vertex="1" parent="1">
          <mxGeometry x="855" y="2590" width="117.5" height="20" as="geometry" />
        </mxCell>
        <mxCell id="-n4oUNv4abo9Lo2zfIX3-76" value="Release D" style="text;html=1;align=center;verticalAlign=middle;whiteSpace=wrap;rounded=0;fontSize=24;fontStyle=1;rotation=55;strokeColor=none;strokeWidth=4;" vertex="1" parent="1">
          <mxGeometry x="500.65" y="3309" width="122.5" height="20" as="geometry" />
        </mxCell>
        <mxCell id="-n4oUNv4abo9Lo2zfIX3-77" value="Release A" style="text;html=1;align=center;verticalAlign=middle;whiteSpace=wrap;rounded=0;fontSize=24;fontStyle=1;rotation=30;strokeColor=none;strokeWidth=4;" vertex="1" parent="1">
          <mxGeometry x="692.39" y="2636.88" width="112.5" height="20" as="geometry" />
        </mxCell>
        <mxCell id="-n4oUNv4abo9Lo2zfIX3-78" value="Press V" style="text;html=1;align=center;verticalAlign=middle;whiteSpace=wrap;rounded=0;fontSize=24;fontStyle=1;rotation=322;strokeColor=none;strokeWidth=4;" vertex="1" parent="1">
          <mxGeometry x="1116" y="3319" width="117.5" height="20" as="geometry" />
        </mxCell>
        <mxCell id="-n4oUNv4abo9Lo2zfIX3-79" value="Press Space" style="text;html=1;align=center;verticalAlign=middle;whiteSpace=wrap;rounded=0;fontSize=24;fontStyle=1;rotation=0;strokeColor=none;strokeWidth=4;" vertex="1" parent="1">
          <mxGeometry x="1454.5" y="3630" width="156.5" height="20" as="geometry" />
        </mxCell>
        <mxCell id="-n4oUNv4abo9Lo2zfIX3-80" value="Press C" style="text;html=1;align=center;verticalAlign=middle;whiteSpace=wrap;rounded=0;fontSize=24;fontStyle=1;rotation=337;strokeColor=none;strokeWidth=4;" vertex="1" parent="1">
          <mxGeometry x="1318.5" y="2345" width="99.75" height="20" as="geometry" />
        </mxCell>
        <mxCell id="-n4oUNv4abo9Lo2zfIX3-81" value="Release A" style="text;html=1;align=center;verticalAlign=middle;whiteSpace=wrap;rounded=0;fontSize=24;fontStyle=1;rotation=333;strokeColor=none;strokeWidth=4;" vertex="1" parent="1">
          <mxGeometry x="659.39" y="2397.38" width="127.5" height="20" as="geometry" />
        </mxCell>
        <mxCell id="-n4oUNv4abo9Lo2zfIX3-82" value="Press D" style="text;html=1;align=center;verticalAlign=middle;whiteSpace=wrap;rounded=0;fontSize=24;fontStyle=1;rotation=-90;strokeColor=none;strokeWidth=4;" vertex="1" parent="1">
          <mxGeometry x="800.25" y="2588.75" width="97.5" height="20" as="geometry" />
        </mxCell>
        <mxCell id="-n4oUNv4abo9Lo2zfIX3-83" value="Release D" style="text;html=1;align=center;verticalAlign=middle;whiteSpace=wrap;rounded=0;fontSize=24;fontStyle=1;rotation=277;strokeColor=none;strokeWidth=4;" vertex="1" parent="1">
          <mxGeometry x="203.87" y="2547.81" width="127.5" height="20" as="geometry" />
        </mxCell>
        <mxCell id="-n4oUNv4abo9Lo2zfIX3-84" value="Press V" style="text;html=1;align=center;verticalAlign=middle;whiteSpace=wrap;rounded=0;fontSize=24;fontStyle=1;rotation=51;strokeColor=none;strokeWidth=4;" vertex="1" parent="1">
          <mxGeometry x="997" y="2535" width="117.5" height="20" as="geometry" />
        </mxCell>
        <mxCell id="-n4oUNv4abo9Lo2zfIX3-85" value="Press Space" style="text;html=1;align=center;verticalAlign=middle;whiteSpace=wrap;rounded=0;fontSize=24;fontStyle=1;rotation=4;strokeColor=none;strokeWidth=4;" vertex="1" parent="1">
          <mxGeometry x="1113.5" y="2244" width="196" height="20" as="geometry" />
        </mxCell>
        <mxCell id="-n4oUNv4abo9Lo2zfIX3-86" value="Press C" style="text;html=1;align=center;verticalAlign=middle;whiteSpace=wrap;rounded=0;fontSize=24;fontStyle=1;rotation=65;strokeColor=none;strokeWidth=4;" vertex="1" parent="1">
          <mxGeometry x="1454" y="2615" width="117.5" height="20" as="geometry" />
        </mxCell>
        <mxCell id="-n4oUNv4abo9Lo2zfIX3-87" value="AnimationComplete" style="text;html=1;align=center;verticalAlign=middle;whiteSpace=wrap;rounded=0;fontSize=24;fontStyle=1;rotation=359;strokeColor=none;strokeWidth=4;" vertex="1" parent="1">
          <mxGeometry x="1330" y="3201" width="117.5" height="24" as="geometry" />
        </mxCell>
        <mxCell id="-n4oUNv4abo9Lo2zfIX3-88" value="AnimationComplete" style="text;html=1;align=center;verticalAlign=middle;whiteSpace=wrap;rounded=0;fontSize=24;fontStyle=1;rotation=0;strokeColor=none;strokeWidth=4;" vertex="1" parent="1">
          <mxGeometry x="1230" y="2830" width="117.5" height="20" as="geometry" />
        </mxCell>
        <mxCell id="-n4oUNv4abo9Lo2zfIX3-89" value="AnimationComplete" style="text;html=1;align=center;verticalAlign=middle;whiteSpace=wrap;rounded=0;fontSize=24;fontStyle=1;rotation=0;strokeColor=none;strokeWidth=4;" vertex="1" parent="1">
          <mxGeometry x="1112.5" y="2772" width="117.5" height="20" as="geometry" />
        </mxCell>
        <mxCell id="-n4oUNv4abo9Lo2zfIX3-90" value="AnimationComplete" style="text;html=1;align=center;verticalAlign=middle;whiteSpace=wrap;rounded=0;fontSize=24;fontStyle=1;rotation=0;strokeColor=none;strokeWidth=4;" vertex="1" parent="1">
          <mxGeometry x="1090" y="2980" width="117.5" height="20" as="geometry" />
        </mxCell>
        <mxCell id="-n4oUNv4abo9Lo2zfIX3-91" value="Press Space" style="text;html=1;align=center;verticalAlign=middle;whiteSpace=wrap;rounded=0;fontSize=24;fontStyle=1;rotation=81;strokeColor=none;strokeWidth=4;" vertex="1" parent="1">
          <mxGeometry x="1651.68" y="2651.52" width="143" height="20" as="geometry" />
        </mxCell>
        <mxCell id="-n4oUNv4abo9Lo2zfIX3-92" value="Press V" style="text;html=1;align=center;verticalAlign=middle;whiteSpace=wrap;rounded=0;fontSize=24;fontStyle=1;rotation=276;strokeColor=none;strokeWidth=4;" vertex="1" parent="1">
          <mxGeometry x="1535.5" y="2635" width="117.5" height="20" as="geometry" />
        </mxCell>
        <mxCell id="-n4oUNv4abo9Lo2zfIX3-93" value="Press Z" style="text;html=1;align=center;verticalAlign=middle;whiteSpace=wrap;rounded=0;fontSize=24;fontStyle=1;rotation=275;strokeColor=none;strokeWidth=4;" vertex="1" parent="1">
          <mxGeometry x="259.75" y="2560.25" width="110.5" height="20" as="geometry" />
        </mxCell>
        <mxCell id="-n4oUNv4abo9Lo2zfIX3-94" value="Press D" style="text;html=1;align=center;verticalAlign=middle;whiteSpace=wrap;rounded=0;fontSize=24;fontStyle=1;rotation=0;strokeColor=none;strokeWidth=4;" vertex="1" parent="1">
          <mxGeometry x="2001.25" y="2305" width="117.5" height="20" as="geometry" />
        </mxCell>
        <mxCell id="-n4oUNv4abo9Lo2zfIX3-95" value="Press A" style="text;html=1;align=center;verticalAlign=middle;whiteSpace=wrap;rounded=0;fontSize=24;fontStyle=1;rotation=72;strokeColor=none;strokeWidth=4;" vertex="1" parent="1">
          <mxGeometry x="2393.5" y="2857" width="117.5" height="20" as="geometry" />
        </mxCell>
        <mxCell id="-n4oUNv4abo9Lo2zfIX3-96" value="Press A" style="text;html=1;align=center;verticalAlign=middle;whiteSpace=wrap;rounded=0;fontSize=24;fontStyle=1;rotation=0;strokeColor=none;strokeWidth=4;" vertex="1" parent="1">
          <mxGeometry x="2050" y="3364" width="117.5" height="20" as="geometry" />
        </mxCell>
        <mxCell id="-n4oUNv4abo9Lo2zfIX3-97" value="Press D" style="text;html=1;align=center;verticalAlign=middle;whiteSpace=wrap;rounded=0;fontSize=24;fontStyle=1;rotation=339;strokeColor=none;strokeWidth=4;" vertex="1" parent="1">
          <mxGeometry x="2170" y="3230" width="117.5" height="20" as="geometry" />
        </mxCell>
        <mxCell id="-n4oUNv4abo9Lo2zfIX3-98" value="Press C" style="text;html=1;align=center;verticalAlign=middle;whiteSpace=wrap;rounded=0;fontSize=24;fontStyle=1;rotation=53;strokeColor=none;strokeWidth=4;" vertex="1" parent="1">
          <mxGeometry x="405" y="3356" width="117.5" height="20" as="geometry" />
        </mxCell>
        <mxCell id="-n4oUNv4abo9Lo2zfIX3-99" value="Press V" style="text;html=1;align=center;verticalAlign=middle;whiteSpace=wrap;rounded=0;fontSize=24;fontStyle=1;rotation=88;strokeColor=none;strokeWidth=4;" vertex="1" parent="1">
          <mxGeometry x="1470" y="3116" width="117.5" height="20" as="geometry" />
        </mxCell>
        <mxCell id="-n4oUNv4abo9Lo2zfIX3-100" value="Press Space" style="text;html=1;align=center;verticalAlign=middle;whiteSpace=wrap;rounded=0;fontSize=24;fontStyle=1;rotation=284;strokeColor=none;strokeWidth=4;" vertex="1" parent="1">
          <mxGeometry x="1619.16" y="2937.21" width="151.5" height="20" as="geometry" />
        </mxCell>
        <mxCell id="-n4oUNv4abo9Lo2zfIX3-101" value="Release D" style="text;html=1;align=center;verticalAlign=middle;whiteSpace=wrap;rounded=0;fontSize=24;fontStyle=1;rotation=0;strokeColor=none;strokeWidth=4;" vertex="1" parent="1">
          <mxGeometry x="2001.25" y="2240" width="117.5" height="20" as="geometry" />
        </mxCell>
        <mxCell id="-n4oUNv4abo9Lo2zfIX3-102" value="Press Space" style="text;html=1;align=center;verticalAlign=middle;whiteSpace=wrap;rounded=0;fontSize=24;fontStyle=1;rotation=278;strokeColor=none;strokeWidth=4;" vertex="1" parent="1">
          <mxGeometry x="2330.75" y="2625.01" width="152" height="20" as="geometry" />
        </mxCell>
        <mxCell id="-n4oUNv4abo9Lo2zfIX3-103" value="Release A" style="text;html=1;align=center;verticalAlign=middle;whiteSpace=wrap;rounded=0;fontSize=24;fontStyle=1;rotation=0;strokeColor=none;strokeWidth=4;" vertex="1" parent="1">
          <mxGeometry x="2046" y="3426" width="117.5" height="20" as="geometry" />
        </mxCell>
        <mxCell id="-n4oUNv4abo9Lo2zfIX3-104" value="Press Z" style="text;html=1;align=center;verticalAlign=middle;whiteSpace=wrap;rounded=0;fontSize=24;fontStyle=1;rotation=54;strokeColor=none;strokeWidth=4;" vertex="1" parent="1">
          <mxGeometry x="366" y="3380" width="117.5" height="20" as="geometry" />
        </mxCell>
        <mxCell id="-n4oUNv4abo9Lo2zfIX3-105" value="Press V" style="text;html=1;align=center;verticalAlign=middle;whiteSpace=wrap;rounded=0;fontSize=24;fontStyle=1;rotation=74;strokeColor=none;strokeWidth=4;" vertex="1" parent="1">
          <mxGeometry x="2348" y="2929" width="117.5" height="20" as="geometry" />
        </mxCell>
        <mxCell id="-n4oUNv4abo9Lo2zfIX3-106" value="Press Space" style="text;html=1;align=center;verticalAlign=middle;whiteSpace=wrap;rounded=0;fontSize=24;fontStyle=1;rotation=78;strokeColor=none;strokeWidth=4;" vertex="1" parent="1">
          <mxGeometry x="2280.92" y="2991.92" width="148" height="20" as="geometry" />
        </mxCell>
        <mxCell id="-n4oUNv4abo9Lo2zfIX3-107" value="Press V" style="text;html=1;align=center;verticalAlign=middle;whiteSpace=wrap;rounded=0;fontSize=24;fontStyle=1;rotation=-30;strokeColor=none;strokeWidth=4;" vertex="1" parent="1">
          <mxGeometry x="2028" y="2906" width="117.5" height="20" as="geometry" />
        </mxCell>
        <mxCell id="-n4oUNv4abo9Lo2zfIX3-108" value="Press Z" style="text;html=1;align=center;verticalAlign=middle;whiteSpace=wrap;rounded=0;fontSize=24;fontStyle=1;rotation=0;strokeColor=none;strokeWidth=4;" vertex="1" parent="1">
          <mxGeometry x="1318.5" y="3280" width="117.5" height="20" as="geometry" />
        </mxCell>
      </root>
    </mxGraphModel>
  </diagram>
</mxfile>
